<svg xmlns="http://www.w3.org/2000/svg" viewBox="1330 44 616 616">
  <style>.s{fill:#78BE20}.c{fill-rule:evenodd;clip-rule:evenodd;fill:#78BE20}</style>
  <path class="s" d="M1935.44,648.89h-594.59V54.3h594.59V648.89z M1379.63,610.11h517.03V93.08h-517.03V610.11z"/>
  <path class="s" d="M1696.2,353.58c0-43.31,35.11-78.42,78.42-78.42c43.31,0,78.42,35.11,78.42,78.42s-35.11,78.42-78.42,78.42C1731.32,432.01,1696.2,396.9,1696.2,353.58z"/>
  <rect x="1767.64" y="418.64" class="s" width="17.35" height="78.89"/>
  <path class="s" d="M1776.34,509.33c-43.58,0-79.09-13.03-105.53-38.72c-26.88-26.12-43.82-65.07-50.33-115.77c-10.66-83.04-50.09-123.41-120.53-123.41c-66.38,0-120.39,54.34-120.39,121.14h-35.62c0-86.44,69.98-156.76,156-156.76c43.58,0,79.09,13.03,105.53,38.73c26.88,26.12,43.82,65.07,50.32,115.77c10.66,83.04,50.09,123.41,120.53,123.41c66.38,0,120.39-54.34,120.39-121.14h35.62C1932.35,439.01,1862.37,509.33,1776.34,509.33z"/>
</svg>
